<?xml version="1.0" encoding="UTF-8"?>
<!-- Generator: Adobe Illustrator 16.0.0, SVG Export Plug-In . SVG Version: 6.00 Build 0)  -->
<!DOCTYPE svg PUBLIC "-//W3C//DTD SVG 1.1//EN" "http://www.w3.org/Graphics/SVG/1.1/DTD/svg11.dtd">
<svg version="1.1" id="Layer_1" xmlns="http://www.w3.org/2000/svg" xmlns:xlink="http://www.w3.org/1999/xlink" x="0px" y="0px" width="1237.513px" height="1075.852px" viewBox="0 0 1237.513 1075.852" enable-background="new 0 0 1237.513 1075.852" xml:space="preserve">
<g>
	<linearGradient id="SVGID_1_" gradientUnits="userSpaceOnUse" x1="1224.6602" y1="-166.7598" x2="448.8586" y2="759.937">
		<stop offset="0" style="stop-color:#374FA1"/>
		<stop offset="0.8147" style="stop-color:#458EFE"/>
	</linearGradient>
	<path fill="url(#SVGID_1_)" d="M1237.501,0v1008.934c-155.74,67.031-352.693,37.92-478.221-74.521   c-38.904-34.885-72.136-77.209-118.904-101.494c-102.556-53.271-247.919-8.717-331.525-87.049   c-72.254-67.658-53.008-186.883-106.962-268.955c-23.385-35.632-54.871-66.231-89.222-92.284   C-12.654,289.689-25.336,74.725,100.042,0H1237.501z"/>
	<linearGradient id="SVGID_2_" gradientUnits="userSpaceOnUse" x1="1206.8584" y1="-129.7505" x2="428.7213" y2="799.736">
		<stop offset="0" style="stop-color:#006DFF"/>
		<stop offset="0.7617" style="stop-color:#00BFD8"/>
	</linearGradient>
	<path opacity="0.1246" fill="url(#SVGID_2_)" d="M1208.63,28.212l28.883,1009.336c-155.425,67.58-380.859,46.088-506.132-67.277   c-38.825-35.176-71.989-77.844-118.664-102.32c-102.346-53.711-247.415-8.795-330.853-87.764   c-72.107-68.217-52.899-188.41-106.743-271.157c-23.336-35.924-54.759-66.773-89.043-93.039   C-38.986,320.271-22.772,75.335,102.351,0L1208.63,28.212z"/>
	<linearGradient id="SVGID_3_" gradientUnits="userSpaceOnUse" x1="1144.8281" y1="224.8784" x2="692.9345" y2="764.6663">
		<stop offset="0" style="stop-color:#FFFFFF"/>
		<stop offset="0.2561" style="stop-color:#BFD8FF"/>
		<stop offset="0.7617" style="stop-color:#458EFE"/>
	</linearGradient>
	<path opacity="0.0816" fill="url(#SVGID_3_)" d="M1237.501,302.462v627.376c-17.414,9.322-38.256,14.662-58.276,17.006   c-65.244,7.68-133.348-7.51-187.602-41.801c-79.716-50.381-124.284-135.414-191.707-199.295   c-51.51-48.832-116.838-85.121-187.716-104.293c-46.27-12.512-94.978-17.938-139.207-35.639   c-62.922-25.221-114.8-78.6-123.209-141.409c-8.41-62.808,34.518-131.236,101.12-146.373   c56.04-12.766,114.147,11.352,171.828,9.518c48.961-1.555,94.07-21.633,134.621-45.525c36.443-21.463,60.345-46.485,107.72-45.384   c35.142,0.818,69.094,14.572,96.448,34.934c33.499,24.965,59.694,60.55,100.356,73.653c55.357,17.877,107.663-19.655,161.323-7.624   C1228.212,298.735,1232.972,300.373,1237.501,302.462z"/>
</g>
</svg>